<svg width="42" height="46" viewBox="0 0 42 46" fill="none" xmlns="http://www.w3.org/2000/svg">
<path d="M4.97461 37.6484H5.86816L3.55859 40.2314L6.05371 43H5.10156L2.66992 40.2852V43H1.85449V37.6484H2.66992V40.2461L4.97461 37.6484ZM11.6348 40.3145C11.6348 40.7539 11.5778 41.1462 11.4639 41.4912C11.3499 41.8363 11.1855 42.1276 10.9707 42.3652C10.7559 42.6029 10.4954 42.7852 10.1895 42.9121C9.88672 43.0358 9.54329 43.0977 9.15918 43.0977C8.80111 43.0977 8.47233 43.0358 8.17285 42.9121C7.87663 42.7852 7.61947 42.6029 7.40137 42.3652C7.18652 42.1276 7.01888 41.8363 6.89844 41.4912C6.78125 41.1462 6.72266 40.7539 6.72266 40.3145C6.72266 39.7285 6.82194 39.2305 7.02051 38.8203C7.21908 38.4069 7.50228 38.0928 7.87012 37.8779C8.24121 37.6598 8.68229 37.5508 9.19336 37.5508C9.68164 37.5508 10.1081 37.6598 10.4727 37.8779C10.8405 38.096 11.1253 38.4118 11.3271 38.8252C11.5322 39.2354 11.6348 39.7318 11.6348 40.3145ZM7.5625 40.3145C7.5625 40.7441 7.61947 41.1169 7.7334 41.4326C7.84733 41.7484 8.02311 41.9925 8.26074 42.165C8.49837 42.3376 8.80436 42.4238 9.17871 42.4238C9.5498 42.4238 9.85417 42.3376 10.0918 42.165C10.3327 41.9925 10.5101 41.7484 10.624 41.4326C10.738 41.1169 10.7949 40.7441 10.7949 40.3145C10.7949 39.888 10.738 39.5202 10.624 39.2109C10.5101 38.8984 10.3343 38.6576 10.0967 38.4883C9.85905 38.319 9.55143 38.2344 9.17383 38.2344C8.61719 38.2344 8.20866 38.4183 7.94824 38.7861C7.69108 39.154 7.5625 39.6634 7.5625 40.3145ZM15.5508 37.5508C16.2181 37.5508 16.7503 37.7803 17.1475 38.2393C17.5446 38.6982 17.7432 39.3883 17.7432 40.3096C17.7432 40.9183 17.652 41.4294 17.4697 41.8428C17.2874 42.2562 17.0303 42.5687 16.6982 42.7803C16.3695 42.9919 15.9805 43.0977 15.5312 43.0977C15.248 43.0977 14.999 43.0602 14.7842 42.9854C14.5693 42.9105 14.3854 42.8096 14.2324 42.6826C14.0794 42.5557 13.9525 42.4173 13.8516 42.2676H13.793C13.8027 42.3945 13.8141 42.5475 13.8271 42.7266C13.8434 42.9056 13.8516 43.0618 13.8516 43.1953V45.3926H13.0361V37.6484H13.7051L13.8125 38.4395H13.8516C13.9557 38.2767 14.0827 38.1286 14.2324 37.9951C14.3822 37.8584 14.5645 37.751 14.7793 37.6729C14.9974 37.5915 15.2546 37.5508 15.5508 37.5508ZM15.4092 38.2344C15.0381 38.2344 14.7386 38.306 14.5107 38.4492C14.2861 38.5924 14.1217 38.8073 14.0176 39.0938C13.9134 39.377 13.8581 39.7334 13.8516 40.1631V40.3193C13.8516 40.7718 13.9004 41.1543 13.998 41.4668C14.099 41.7793 14.2633 42.0169 14.4912 42.1797C14.7223 42.3424 15.0316 42.4238 15.4189 42.4238C15.751 42.4238 16.0277 42.3343 16.249 42.1553C16.4704 41.9762 16.6348 41.7272 16.7422 41.4082C16.8529 41.0859 16.9082 40.7165 16.9082 40.2998C16.9082 39.6683 16.7845 39.167 16.5371 38.7959C16.293 38.4215 15.917 38.2344 15.4092 38.2344ZM23.7734 40.3145C23.7734 40.7539 23.7165 41.1462 23.6025 41.4912C23.4886 41.8363 23.3242 42.1276 23.1094 42.3652C22.8945 42.6029 22.6341 42.7852 22.3281 42.9121C22.0254 43.0358 21.682 43.0977 21.2979 43.0977C20.9398 43.0977 20.611 43.0358 20.3115 42.9121C20.0153 42.7852 19.7581 42.6029 19.54 42.3652C19.3252 42.1276 19.1576 41.8363 19.0371 41.4912C18.9199 41.1462 18.8613 40.7539 18.8613 40.3145C18.8613 39.7285 18.9606 39.2305 19.1592 38.8203C19.3577 38.4069 19.641 38.0928 20.0088 37.8779C20.3799 37.6598 20.821 37.5508 21.332 37.5508C21.8203 37.5508 22.2467 37.6598 22.6113 37.8779C22.9792 38.096 23.264 38.4118 23.4658 38.8252C23.6709 39.2354 23.7734 39.7318 23.7734 40.3145ZM19.7012 40.3145C19.7012 40.7441 19.7581 41.1169 19.8721 41.4326C19.986 41.7484 20.1618 41.9925 20.3994 42.165C20.637 42.3376 20.943 42.4238 21.3174 42.4238C21.6885 42.4238 21.9928 42.3376 22.2305 42.165C22.4714 41.9925 22.6488 41.7484 22.7627 41.4326C22.8766 41.1169 22.9336 40.7441 22.9336 40.3145C22.9336 39.888 22.8766 39.5202 22.7627 39.2109C22.6488 38.8984 22.473 38.6576 22.2354 38.4883C21.9977 38.319 21.6901 38.2344 21.3125 38.2344C20.7559 38.2344 20.3473 38.4183 20.0869 38.7861C19.8298 39.154 19.7012 39.6634 19.7012 40.3145ZM24.8965 39.7871C24.8965 39.0254 24.9697 38.376 25.1162 37.8389C25.2627 37.2985 25.4889 36.8656 25.7949 36.54C26.1042 36.2113 26.5013 35.9867 26.9863 35.8662C27.403 35.7523 27.8262 35.6546 28.2559 35.5732C28.6855 35.4886 29.1038 35.4154 29.5107 35.3535L29.6523 36.0664C29.4473 36.0957 29.2324 36.1299 29.0078 36.1689C28.7832 36.2048 28.5586 36.2438 28.334 36.2861C28.1094 36.3252 27.8978 36.3675 27.6992 36.4131C27.5007 36.4554 27.3249 36.4993 27.1719 36.5449C26.8952 36.6198 26.6559 36.75 26.4541 36.9355C26.2555 37.1211 26.0977 37.3766 25.9805 37.7021C25.8665 38.0277 25.7982 38.4378 25.7754 38.9326H25.834C25.9316 38.7894 26.0651 38.6478 26.2344 38.5078C26.4036 38.3678 26.6055 38.2523 26.8398 38.1611C27.0742 38.0667 27.3379 38.0195 27.6309 38.0195C28.0931 38.0195 28.4788 38.1204 28.7881 38.3223C29.0973 38.5208 29.3301 38.8008 29.4863 39.1621C29.6426 39.5234 29.7207 39.9466 29.7207 40.4316C29.7207 41.0143 29.6198 41.5042 29.418 41.9014C29.2194 42.2985 28.9395 42.598 28.5781 42.7998C28.2168 42.9984 27.792 43.0977 27.3037 43.0977C26.9261 43.0977 26.5876 43.0244 26.2881 42.8779C25.9919 42.7314 25.7396 42.5166 25.5312 42.2334C25.3262 41.9502 25.1683 41.6035 25.0576 41.1934C24.9502 40.7832 24.8965 40.3145 24.8965 39.7871ZM27.3672 42.4238C27.6764 42.4238 27.9417 42.3587 28.1631 42.2285C28.3877 42.0983 28.5602 41.8932 28.6807 41.6133C28.8044 41.3301 28.8662 40.9622 28.8662 40.5098C28.8662 39.9434 28.7572 39.5007 28.5391 39.1816C28.3242 38.8594 27.9792 38.6982 27.5039 38.6982C27.2077 38.6982 26.9391 38.7617 26.6982 38.8887C26.4574 39.0124 26.2539 39.1605 26.0879 39.333C25.9219 39.5055 25.8014 39.6602 25.7266 39.7969C25.7266 40.1289 25.751 40.4512 25.7998 40.7637C25.8486 41.0762 25.9333 41.3577 26.0537 41.6084C26.1742 41.859 26.3402 42.0576 26.5518 42.2041C26.7666 42.3506 27.0384 42.4238 27.3672 42.4238ZM34.2422 37.6484H35.1357L32.8262 40.2314L35.3213 43H34.3691L31.9375 40.2852V43H31.1221V37.6484H31.9375V40.2461L34.2422 37.6484ZM38.29 37.5605C38.9281 37.5605 39.4017 37.7038 39.7109 37.9902C40.0202 38.2767 40.1748 38.734 40.1748 39.3623V43H39.584L39.4277 42.209H39.3887C39.2389 42.4043 39.0827 42.5687 38.9199 42.7021C38.7572 42.8324 38.5684 42.9316 38.3535 43C38.1419 43.0651 37.8815 43.0977 37.5723 43.0977C37.2467 43.0977 36.957 43.0407 36.7031 42.9268C36.4525 42.8128 36.2539 42.6403 36.1074 42.4092C35.9642 42.1781 35.8926 41.8851 35.8926 41.5303C35.8926 40.9964 36.1042 40.5863 36.5273 40.2998C36.9505 40.0133 37.5951 39.8571 38.4609 39.8311L39.3838 39.792V39.4648C39.3838 39.0026 39.2845 38.6787 39.0859 38.4932C38.8874 38.3076 38.6074 38.2148 38.2461 38.2148C37.9661 38.2148 37.6992 38.2555 37.4453 38.3369C37.1914 38.4183 36.9505 38.5143 36.7227 38.625L36.4736 38.0098C36.7145 37.8861 36.9912 37.7803 37.3037 37.6924C37.6162 37.6045 37.945 37.5605 38.29 37.5605ZM39.374 40.3633L38.5586 40.3975C37.8913 40.4235 37.4209 40.5326 37.1475 40.7246C36.874 40.9167 36.7373 41.1885 36.7373 41.54C36.7373 41.846 36.8301 42.0723 37.0156 42.2188C37.2012 42.3652 37.4469 42.4385 37.7529 42.4385C38.2282 42.4385 38.6172 42.3066 38.9199 42.043C39.2227 41.7793 39.374 41.3838 39.374 40.8564V40.3633Z" fill="black"/>
<path d="M10.8125 30.4688L36.7888 23.5085C39.2212 22.8567 40.6647 20.3565 40.0129 17.9241C39.3612 15.4918 36.861 14.0483 34.4286 14.7L17.1128 19.3398C14.4455 20.0545 11.7038 18.4716 10.9891 15.8043L9.82079 11.4442C9.17998 9.05265 6.72178 7.63341 4.33025 8.27422C1.93872 8.91503 0.519476 11.3732 1.16029 13.7648L4.68878 26.9333C5.40349 29.6006 8.14517 31.1835 10.8125 30.4688Z" fill="#BA576F"/>
<path d="M33.3088 9.29166L20.0352 12.8483C17.7725 13.4546 15.4467 12.1118 14.8404 9.84913C14.2341 7.58645 15.5769 5.26068 17.8396 4.6544L31.1132 1.09775C33.3759 0.491463 35.7017 1.83424 36.3079 4.09693C36.9142 6.35961 35.5714 8.68537 33.3088 9.29166Z" fill="#BA576F"/>
</svg>
